<svg width="180" height="40" viewBox="0 0 180 40" fill="none" xmlns="http://www.w3.org/2000/svg">
  <!-- K -->
  <path d="M0 8H8V18L18 8H28L14 22L28 36H18L8 26V36H0V8Z" fill="white"/>
  <!-- O -->
  <path d="M32 22C32 14.268 38.268 8 46 8C53.732 8 60 14.268 60 22C60 29.732 53.732 36 46 36C38.268 36 32 29.732 32 22ZM52 22C52 18.686 49.314 16 46 16C42.686 16 40 18.686 40 22C40 25.314 42.686 28 46 28C49.314 28 52 25.314 52 22Z" fill="white"/>
  <!-- R -->
  <path d="M64 8H80C87.732 8 92 13.268 92 19C92 23.5 89.5 27 85 28.5L94 36H84L76 29H72V36H64V8ZM72 22H78C81.314 22 84 20.5 84 18C84 15.5 81.314 14 78 14H72V22Z" fill="white"/>
  <!-- T -->
  <path d="M96 8H124V16H114V36H106V16H96V8Z" fill="white"/>
  <!-- Blue Square (the dot) -->
  <rect x="126" y="26" width="10" height="10" fill="#00A3FF"/>
  <!-- X -->
  <path d="M140 8H150L158 18L166 8H176L164 24L176 36H166L158 26L150 36H140L152 24L140 8Z" fill="white"/>
</svg>
